<?xml version="1.0" encoding="utf-8"?>
<!-- Generator: Adobe Illustrator 19.0.0, SVG Export Plug-In . SVG Version: 6.00 Build 0)  -->
<svg version="1.1" id="Layer_1" xmlns="http://www.w3.org/2000/svg" xmlns:xlink="http://www.w3.org/1999/xlink" x="0px" y="0px"
	 viewBox="-60 147.2 721 302.1" style="enable-background:new -60 147.2 721 302.1;" xml:space="preserve">
<style type="text/css">
	.st0{fill:#2A59C4;}
	.st1{fill:#FFFFFF;}
	.st2{fill:#C42A2A;}
	.st3{fill:#2DC42A;}
</style>
<path id="XMLID_45_" class="st0" d="M561.3,449.5l-144-22.7c-36.2-5.7-61.1-40-55.5-76.2l22.7-144c5.7-36.2,40-61.1,76.2-55.5
	l144,22.7c36.2,5.7,61.1,40,55.5,76.2l-22.7,144C631.8,430.2,597.5,455.2,561.3,449.5z"/>
<path class="st1" d="M470.2,350.2c0.6-9.1,2-18.1,3.6-27.1c0.6-3.1,0.6-3.1,3.7-2.5c7.3,1.3,14.6,2.5,21.9,3.7
	c1.2,0.2,1.7,0.6,1.5,1.9c-0.6,3.5-1.3,7-1.8,10.5c-0.7,5-1.3,10-1.7,15c-0.2,2.1,0.3,4.4,2.7,5.5c2.8,1.4,5.6,0.6,6.8-2.4
	c0.9-2.3,1.7-4.8,2.1-7.3c0.7-3.9,1.3-7.8,1.7-11.8c0.2-2,0.1-4-0.1-6c-0.3-2.5-1.9-4.4-3.3-6.3c-4.7-6.4-9.5-12.7-14.2-19.2
	c-4.4-6.1-8.2-12.4-9.8-19.9c-1.1-5.2-1-10.5-0.6-15.7c0.9-10.5,2.9-20.8,6-30.9c1.3-4.1,2.9-8.1,5.3-11.8
	c5.4-8.1,13.2-12.3,22.8-12.8c6.6-0.4,13,0.8,18.8,4c7.4,4,12.1,10.1,14.5,18.1c1.4,4.6,2.1,9.3,1.6,14.1c-0.5,4-1.1,8.1-1.7,12.1
	c-0.6,4-1.4,8-2,12.1c-0.2,1.1-0.6,1.3-1.5,1.2c-2.8-0.5-5.5-0.9-8.3-1.4c-5-0.9-10-1.7-15-2.6c-2-0.3-2.1-0.4-1.8-2.4
	c0.8-5.5,1.8-10.9,2.5-16.4c0.3-2,0.2-4.1,0-6.1c-0.1-1.8-1.4-2.8-3.1-3.2c-1.7-0.4-3.3-0.2-4.5,1.3c-1.9,2.4-2.6,5.3-3.2,8.2
	c-0.6,3.2-1,6.5-1.4,9.8c-0.5,4.4,0.8,8.3,2.9,12.1c2.8,4.9,6.5,9.1,10.2,13.4c4.9,5.7,9.6,11.6,12.8,18.5c2.2,4.8,3.1,9.8,3.1,15
	c0,3.3,0,6.7-0.4,10c-0.5,4.4-1.1,8.8-2.1,13.1c-1.3,6.1-2.8,12.1-4.5,18c-1.9,6.4-4.9,12.3-9.7,17c-4.8,4.7-10.5,7.4-17.2,7.9
	c-9.3,0.6-17.9-1.6-25.2-7.5c-6.8-5.5-10.4-12.9-11.2-21.6C470.3,355.5,470.3,352.9,470.2,350.2z"/>
<g>
	<path id="XMLID_51_" class="st2" d="M187,424L43.5,449.3c-36.1,6.4-70.8-18-77.2-54L-59,251.7c-6.4-36.1,18-70.8,54-77.2
		l143.5-25.3c36.1-6.4,70.8,18,77.2,54l25.3,143.5C247.4,382.9,223.1,417.6,187,424z"/>
	<g>
		<path class="st1" d="M81,385.5c-0.2-0.4-0.5-0.8-0.6-1.2c-1.3-6.7-2.5-13.5-3.8-20.2c-2.8-15-5.6-30.1-8.4-45.1
			c-4-21.2-7.9-42.4-11.9-63.6c-0.4-2.4-0.4-2.4,2-2.9c11-2,21.9-4,32.9-6c1.6-0.3,1.8-0.2,2.1,1.4c3.6,19.1,7.1,38.3,10.7,57.4
			c4.5,23.9,8.9,47.8,13.4,71.7c0.3,1.8,0.3,1.8-1.5,2.1c-11.2,2-22.4,4.1-33.5,6.1C82,385.3,81.7,385.3,81,385.5z"/>
		<path class="st1" d="M91,237.2c-2,0.4-4,0.7-6,1.1c-9.7,1.8-19.4,3.6-29.2,5.3c-1.7,0.3-1.8,0.3-2.1-1.5c-1-5.6-2.1-11.1-3.1-16.7
			c-0.3-1.7-0.2-1.9,1.4-2.2c11.3-2.1,22.5-4.1,33.8-6.2c0.9-0.2,1.5-0.1,1.7,1c1.1,6.2,2.3,12.4,3.5,18.6
			C91.1,236.8,91.1,236.9,91,237.2z"/>
	</g>
</g>
<g>
	<path id="XMLID_37_" class="st3" d="M360.8,450.3L215,447c-36.6-0.8-65.9-31.5-65.1-68.1l3.3-145.7c0.8-36.6,31.5-65.9,68.1-65.1
		l145.7,3.3c36.6,0.8,65.9,31.5,65.1,68.1l-3.3,145.7C428,421.8,397.4,451.1,360.8,450.3z"/>
	<g>
		<path class="st1" d="M197.2,308.2c0-1.7-0.1-3.3,0-5c0.4-3.5,0.9-7.1,1.4-10.6c0.2-1.5,0.5-3.1,0.9-4.6c0.5-2,0.9-4,1.5-5.9
			c1-3.2,1.9-6.4,3.2-9.5c3.6-8.6,7.9-16.8,14.1-23.8c3.9-4.5,8.1-8.8,12.4-12.8c2.9-2.7,6.4-4.9,9.8-7c3.6-2.3,7.3-4.4,11.1-6.2
			c3.7-1.7,7.5-3,11.4-4.3c3.5-1.1,7-2.1,10.6-2.8c2.7-0.6,5.4-0.7,8.1-1c4.9-0.6,9.9-1,14.8-0.6c3.8,0.3,7.6,0.7,11.4,1.3
			c4.1,0.7,8.1,1.4,12.1,2.5c3.5,1,6.8,2.4,10.1,3.8c3.1,1.3,6.1,2.7,9.1,4.2c1.8,0.9,3.5,2,5.2,3.1c2.3,1.5,4.5,3.1,6.8,4.6
			c0.1,0.1,0.2,0.1,0.3,0.2c3,2.7,6,5.3,8.9,8.1c2.1,2,4,4.2,6.1,6.2c0.6,0.6,0.5,1,0,1.5c-1.9,1.7-3.9,3.4-5.8,5
			c-3.2,2.7-6.4,5.4-9.6,8.2c-0.6,0.5-1.1,0.8-1.8,0c-3.1-2.9-6.2-5.9-9.5-8.5c-3.2-2.6-6.5-5-9.9-7.1c-3.1-1.9-6.6-3.2-10-4.6
			c-2.8-1.1-5.6-2-8.5-2.9c-1.1-0.3-2.2-0.5-3.3-0.7c-2.5-0.4-5-0.9-7.5-1c-4.9-0.1-9.8-0.1-14.6,0.2c-2.2,0.1-4.3,0.7-6.5,1.1
			c-1.4,0.3-2.8,0.5-4.2,1c-2.7,0.9-5.5,1.7-8.2,2.8c-3,1.2-6,2.7-8.9,4.2c-1.5,0.8-3,1.7-4.4,2.7c-2.1,1.5-4.1,3.2-6.3,4.5
			c-3.2,2-5.6,4.9-8.1,7.5c-1.8,1.8-3.2,4-4.7,6.1c-0.9,1.2-1.8,2.3-2.7,3.5c-0.7,1-1.2,2-1.8,3.1c-0.1,0.1-0.1,0.3-0.2,0.3
			c-1.7,1.4-1.7,3.7-2.8,5.4c-0.8,1.3-1.4,2.7-2,4c-0.4,0.8-0.7,1.6-0.9,2.5c-0.3,1.2-0.6,2.4-0.9,3.6c-0.4,1.5-0.8,3-1.3,4.5
			c-0.1,0.2-0.2,0.4-0.2,0.6c0,2.7-1.3,5.3-0.9,8c0.1,0.6-0.4,1.4-0.5,2.1c-0.1,1-0.3,2.1-0.2,3.1c0.1,1.8-0.4,3.7,0.6,5.5
			c0.3,0.5,0.1,1.3,0.1,1.9c0.1,1.6-0.1,3.2,0.5,4.9c0.6,1.6,0.6,3.5,0.9,5.2c0.3,1.3,0.6,2.6,1.1,3.8c0.6,1.8,1.1,3.7,2,5.3
			c1.5,2.8,1.9,6.2,4.2,8.7c0.7,0.7,0.9,1.9,1.5,2.7c1.4,2.1,3,4.1,4.4,6.2c2.6,3.6,5.8,6.6,9,9.7c1.6,1.6,3.7,2.7,5.4,4.2
			c1.5,1.2,3,2.3,4.8,3.2c2.5,1.3,4.9,2.9,7.5,4.1c4.9,2.3,10,3.9,15.2,5.2c5.6,1.4,11.2,1.6,16.9,1.4c3.5-0.1,7-0.2,10.3-0.9
			c4.1-0.8,8.1-2.1,12-3.5c4.1-1.6,8.2-3.4,12-5.6c7.1-4.2,13.3-9.4,18.8-15.6c0.1-0.1,0.2-0.2,0.2-0.3c2.1-2.2,2.5-2,4.5-0.3
			c1.7,1.4,3.3,2.9,5,4.3c2.3,1.8,4.5,3.8,6.9,5.3c1.7,1,3,2.2,3.7,3.9c0.2,0.4,0.2,1.1-0.1,1.3c-3.8,4-7.6,8.1-11.6,11.9
			c-2.5,2.4-5.4,4.6-8.2,6.6c-2.2,1.6-4.7,2.6-6.9,4.2c-4.2,2.9-8.8,4.7-13.5,6.5c-2.7,1.1-5.6,1.8-8.4,2.6
			c-2.6,0.7-5.2,1.4-7.8,2.1c-0.1,0-0.2,0.1-0.3,0.1c-2.3,0.3-4.6,0.7-7,0.8c-4.2,0.3-8.5,0.6-12.8,0.5c-3.8-0.1-7.6-0.3-11.4-1.1
			c-1.9-0.5-3.9-0.6-5.9-0.9c-1.6-0.3-3.1-0.7-4.7-1.1c-1.5-0.4-3-0.8-4.5-1.2c-0.9-0.3-1.9-0.5-2.8-0.8c-4.3-1.9-8.7-3.6-12.8-5.8
			c-4.5-2.4-8.9-5-13.1-8c-5.6-3.9-10.7-8.4-15-13.7c-2.4-3-5-5.9-7.2-9.1c-2.1-3-4-6.3-5.8-9.6c-1.5-2.7-2.8-5.4-4-8.2
			c-1.1-2.5-2.1-5.1-2.8-7.7c-1.3-4.7-2.6-9.5-3.5-14.3C197.4,318.1,196.7,313.2,197.2,308.2z"/>
		<path class="st1" d="M332.1,294.1c16.9,0,33.8,0,50.7,0c2.1,0,2.2,0.1,2.2,2.2c0,6.7,0,13.4,0,20.1c0,1.9,0,1.9-1.9,1.9
			c-16.7,0-33.5,0-50.2,0c-16.9,0-33.7,0-50.6,0c-0.5,0-1,0-1.4,0c-1.6-0.1-1.9-0.4-1.9-2.1c0-6.6,0-13.2,0-19.7
			c0-2.3,0.1-2.5,2.4-2.5C298.3,294.1,315.2,294.1,332.1,294.1z"/>
	</g>
</g>
</svg>
